<?xml version="1.0" standalone="no"?>
<svg xmlns:xlink="http://www.w3.org/1999/xlink" id="wave" style="transform:rotate(0deg); transition: 0.3s" viewBox="0 0 1440 270" version="1.1" xmlns="http://www.w3.org/2000/svg"><defs><linearGradient id="sw-gradient-0" x1="0" x2="0" y1="1" y2="0"><stop stop-color="rgba(62, 172.481, 243, 1)" offset="0%"/><stop stop-color="rgba(11, 217.8, 255, 1)" offset="100%"/></linearGradient></defs><path style="transform:translate(0, 0px); opacity:1" fill="url(#sw-gradient-0)" d="M0,135L48,112.5C96,90,192,45,288,54C384,63,480,126,576,162C672,198,768,207,864,207C960,207,1056,198,1152,180C1248,162,1344,135,1440,135C1536,135,1632,162,1728,171C1824,180,1920,171,2016,153C2112,135,2208,108,2304,94.5C2400,81,2496,81,2592,81C2688,81,2784,81,2880,103.5C2976,126,3072,171,3168,198C3264,225,3360,234,3456,234C3552,234,3648,225,3744,207C3840,189,3936,162,4032,148.5C4128,135,4224,135,4320,139.5C4416,144,4512,153,4608,139.5C4704,126,4800,90,4896,72C4992,54,5088,54,5184,45C5280,36,5376,18,5472,40.5C5568,63,5664,126,5760,148.5C5856,171,5952,153,6048,157.5C6144,162,6240,189,6336,198C6432,207,6528,198,6624,184.5C6720,171,6816,153,6864,144L6912,135L6912,270L6864,270C6816,270,6720,270,6624,270C6528,270,6432,270,6336,270C6240,270,6144,270,6048,270C5952,270,5856,270,5760,270C5664,270,5568,270,5472,270C5376,270,5280,270,5184,270C5088,270,4992,270,4896,270C4800,270,4704,270,4608,270C4512,270,4416,270,4320,270C4224,270,4128,270,4032,270C3936,270,3840,270,3744,270C3648,270,3552,270,3456,270C3360,270,3264,270,3168,270C3072,270,2976,270,2880,270C2784,270,2688,270,2592,270C2496,270,2400,270,2304,270C2208,270,2112,270,2016,270C1920,270,1824,270,1728,270C1632,270,1536,270,1440,270C1344,270,1248,270,1152,270C1056,270,960,270,864,270C768,270,672,270,576,270C480,270,384,270,288,270C192,270,96,270,48,270L0,270Z"/></svg>