<?xml version="1.0" standalone="no"?>
<svg xmlns:xlink="http://www.w3.org/1999/xlink" id="wave" style="transform:rotate(0deg); transition: 0.3s" viewBox="0 0 1440 270" version="1.1" xmlns="http://www.w3.org/2000/svg"><defs><linearGradient id="sw-gradient-0" x1="0" x2="0" y1="1" y2="0"><stop stop-color="rgba(62, 172.481, 243, 1)" offset="0%"/><stop stop-color="rgba(11, 255, 250.867, 1)" offset="100%"/></linearGradient></defs><path style="transform:translate(0, 0px); opacity:1" fill="url(#sw-gradient-0)" d="M0,135L34.3,112.5C68.6,90,137,45,206,54C274.3,63,343,126,411,162C480,198,549,207,617,207C685.7,207,754,198,823,180C891.4,162,960,135,1029,135C1097.1,135,1166,162,1234,171C1302.9,180,1371,171,1440,153C1508.6,135,1577,108,1646,94.5C1714.3,81,1783,81,1851,81C1920,81,1989,81,2057,103.5C2125.7,126,2194,171,2263,198C2331.4,225,2400,234,2469,234C2537.1,234,2606,225,2674,207C2742.9,189,2811,162,2880,148.5C2948.6,135,3017,135,3086,139.5C3154.3,144,3223,153,3291,139.5C3360,126,3429,90,3497,72C3565.7,54,3634,54,3703,45C3771.4,36,3840,18,3909,40.5C3977.1,63,4046,126,4114,148.5C4182.9,171,4251,153,4320,157.5C4388.6,162,4457,189,4526,198C4594.3,207,4663,198,4731,184.5C4800,171,4869,153,4903,144L4937.1,135L4937.1,270L4902.9,270C4868.6,270,4800,270,4731,270C4662.9,270,4594,270,4526,270C4457.1,270,4389,270,4320,270C4251.4,270,4183,270,4114,270C4045.7,270,3977,270,3909,270C3840,270,3771,270,3703,270C3634.3,270,3566,270,3497,270C3428.6,270,3360,270,3291,270C3222.9,270,3154,270,3086,270C3017.1,270,2949,270,2880,270C2811.4,270,2743,270,2674,270C2605.7,270,2537,270,2469,270C2400,270,2331,270,2263,270C2194.3,270,2126,270,2057,270C1988.6,270,1920,270,1851,270C1782.9,270,1714,270,1646,270C1577.1,270,1509,270,1440,270C1371.4,270,1303,270,1234,270C1165.7,270,1097,270,1029,270C960,270,891,270,823,270C754.3,270,686,270,617,270C548.6,270,480,270,411,270C342.9,270,274,270,206,270C137.1,270,69,270,34,270L0,270Z"/></svg>