<?xml version="1.0" standalone="no"?>
<!DOCTYPE svg PUBLIC "-//W3C//DTD SVG 20010904//EN"
 "http://www.w3.org/TR/2001/REC-SVG-20010904/DTD/svg10.dtd">
<svg version="1.0" xmlns="http://www.w3.org/2000/svg"
 width="96.000000pt" height="96.000000pt" viewBox="0 0 96.000000 96.000000"
 preserveAspectRatio="xMidYMid meet">
<metadata>
Created by potrace 1.14, written by Peter Selinger 2001-2017
</metadata>
<g transform="translate(0.000000,96.000000) scale(0.100000,-0.100000)"
fill="#000000" stroke="none">
<path d="M377 880 c-111 -28 -219 -119 -269 -227 -28 -58 -33 -81 -35 -158 -3
-110 19 -182 78 -260 188 -249 562 -210 701 73 31 62 33 73 33 172 0 97 -2
110 -31 170 -41 87 -116 163 -200 202 -54 25 -81 31 -152 34 -48 2 -104 -1
-125 -6z"/>
</g>
</svg>
